<?xml version="1.0" encoding="UTF-8"?>
<svg id="_图层_2" data-name="图层 2" xmlns="http://www.w3.org/2000/svg" viewBox="0 0 763.79 88.27">
  <defs>
    <style>
      .cls-1 {
        fill: #e60012;
      }

      .cls-1, .cls-2, .cls-3 {
        stroke-width: 0px;
      }

      .cls-1, .cls-3 {
        fill-rule: evenodd;
      }

      .cls-2, .cls-3 {
        fill: #003152;
      }
    </style>
  </defs>
  <g id="_图层_1-2" data-name="图层 1">
    <g>
      <path class="cls-3" d="m0,9.11h93.6v28.88c-31.44-6.45-46.93-12.9-78.36-19.35C5.89,16.72-.18,12.62,0,9.11H0Zm225.42,0h-93.6v28.88c31.44-6.45,46.93-12.9,78.37-19.35,9.34-1.92,15.42-6.01,15.23-9.53Z"/>
      <path class="cls-3" d="m120.27,22.56v22.18c0,1.65-1.37,3.02-3.02,3.02h-9.06c-1.66,0-3.02-1.36-3.02-3.02v-22.18h15.11Z"/>
      <path class="cls-1" d="m108.19,0h9.06c1.66,0,3.02,1.37,3.02,3.02v12.42h-15.11V3.02c0-1.66,1.36-3.02,3.02-3.02Z"/>
      <g>
        <path class="cls-2" d="m7.26,59.87h8.73c.09.01.13.05.13.13v10.87h16.51v-10.87c.01-.08.06-.13.14-.13h8.72c.09.01.13.05.13.13v27.82c0,.08-.04.12-.13.12h-8.72c-.09,0-.14-.04-.14-.12v-10.87h-16.51v10.87c0,.08-.04.12-.13.12H7.26c-.09,0-.13-.04-.13-.12v-27.82c.01-.08.06-.13.13-.13Z"/>
        <path class="cls-2" d="m55.17,59.87h8.73c.09.01.13.05.13.13v27.82c0,.08-.04.12-.13.12h-8.73c-.09,0-.13-.04-.13-.12v-27.82c.01-.08.06-.13.13-.13Z"/>
        <path class="cls-2" d="m91.19,59.87h8.73c.08.01.13.05.13.13v21.29h23.07c.07,0,.15.06.11.13l-3.42,6.4c-.04.07-.04.12-.12.12h-28.51c-.09,0-.13-.04-.13-.12v-27.82c0-.08.05-.13.13-.13Z"/>
        <path class="cls-2" d="m157.37,59.87c.15.18,5.45,9.5,15.89,27.94v.12h-9.04c-.23-.17-1.21-1.82-2.96-4.96-.21-.25-3.18-5.32-8.92-15.2-.32.36-1.97,3.18-4.96,8.48-.16.2-2.45,4.1-6.85,11.68h-8.97l-.13-.07c9.46-16.78,14.73-26.12,15.82-28h10.11Z"/>
        <path class="cls-2" d="m184.27,59.87h25.36c3.15,0,5.7,1.36,7.66,4.07.66,1.22,1,2.39,1,3.52v.88c0,2.08-1.09,3.9-3.26,5.47,2.17,1.45,3.26,3.27,3.26,5.46v1.26c0,2.39-1.32,4.47-3.95,6.21-1.56.79-2.91,1.19-4.03,1.19h-26.05c-.09,0-.13-.04-.13-.12v-27.82c0-.08.06-.13.13-.13h0Zm8.86,6.65v4.34h15.45c.73,0,1.33-.51,1.81-1.52.09-.4.13-.63.13-.68,0-1.02-.61-1.71-1.82-2.07-.15-.04-.34-.07-.55-.07h-15.01Zm0,10.42v4.34h14.81c1.23,0,2.03-.42,2.38-1.26.13-.42.2-.74.2-.95,0-1-.59-1.71-1.76-2.14h-15.63Z"/>
      </g>
      <polygon class="cls-1" points="152.29 77.86 146.38 87.93 158.19 87.9 152.29 77.86"/>
      <g>
        <path class="cls-2" d="m244.15,88.04v-14.15h2.86v5.57h5.6v-5.57h2.86v14.15h-2.86v-6.19h-5.6v6.19h-2.86Zm28.67,0h-3.11l-1.23-3.22h-5.66l-1.17,3.22h-3.03l5.51-14.15h3.02l5.67,14.15h0Zm-5.26-5.6l-1.95-5.25-1.91,5.25h3.86Zm8.43,5.6v-14.15h6.02c1.51,0,2.61.13,3.29.38.69.26,1.24.71,1.65,1.36.41.65.61,1.39.61,2.23,0,1.06-.31,1.94-.94,2.63-.62.69-1.55,1.13-2.8,1.31.62.36,1.13.76,1.53,1.18.4.44.95,1.2,1.62,2.3l1.73,2.77h-3.41l-2.07-3.08c-.73-1.1-1.23-1.79-1.5-2.08-.27-.28-.56-.48-.86-.59-.3-.1-.78-.15-1.44-.15h-.58v5.91h-2.86Zm2.86-8.17h2.11c1.38,0,2.23-.05,2.57-.17.34-.12.6-.32.8-.6.19-.29.29-.64.29-1.07,0-.48-.13-.86-.38-1.15-.25-.29-.61-.47-1.08-.55-.23-.04-.92-.05-2.08-.05h-2.23v3.59h0Zm13.05-5.98h5.22c1.18,0,2.07.09,2.69.27.83.24,1.54.68,2.13,1.3.59.62,1.05,1.39,1.35,2.29.31.91.46,2.02.46,3.34,0,1.16-.14,2.17-.43,3.01-.36,1.03-.86,1.86-1.52,2.5-.49.48-1.16.86-2,1.13-.63.2-1.47.3-2.53.3h-5.38v-14.15h0Zm2.85,2.39v9.37h2.13c.8,0,1.37-.04,1.73-.13.46-.12.85-.31,1.15-.59.31-.28.56-.74.75-1.37.19-.63.29-1.5.29-2.6s-.1-1.93-.29-2.51c-.19-.59-.46-1.04-.81-1.38-.34-.33-.79-.55-1.32-.66-.4-.09-1.18-.14-2.34-.14h-1.29Zm15.09,11.76l-3.38-14.15h2.92l2.13,9.72,2.59-9.72h3.4l2.48,9.88,2.17-9.88h2.88l-3.44,14.15h-3.03l-2.82-10.58-2.81,10.58h-3.1Zm29.96,0h-3.11l-1.24-3.22h-5.66l-1.17,3.22h-3.03l5.51-14.15h3.03l5.66,14.15h0Zm-5.26-5.6l-1.95-5.25-1.91,5.25h3.86Zm8.43,5.6v-14.15h6.02c1.51,0,2.61.13,3.29.38.69.26,1.24.71,1.65,1.36.41.65.62,1.39.62,2.23,0,1.06-.31,1.94-.94,2.63-.62.69-1.55,1.13-2.79,1.31.62.36,1.13.76,1.54,1.18.4.44.94,1.2,1.62,2.3l1.73,2.77h-3.42l-2.06-3.08c-.73-1.1-1.23-1.79-1.5-2.08-.27-.28-.56-.48-.86-.59-.31-.1-.79-.15-1.44-.15h-.58v5.91h-2.86Zm2.86-8.17h2.11c1.38,0,2.23-.05,2.58-.17.34-.12.6-.32.8-.6.19-.29.29-.64.29-1.07,0-.48-.13-.86-.38-1.15-.26-.29-.61-.47-1.08-.55-.24-.04-.93-.05-2.09-.05h-2.23v3.59h0Zm13.06,8.17v-14.15h10.49v2.39h-7.63v3.14h7.1v2.38h-7.1v3.86h7.9v2.39h-10.76Zm36.19,0h-3.11l-1.24-3.22h-5.66l-1.16,3.22h-3.03l5.51-14.15h3.03l5.67,14.15h0Zm-5.27-5.6l-1.95-5.25-1.91,5.25h3.86Zm8.45,5.6v-14.15h2.79l5.79,9.45v-9.45h2.66v14.15h-2.87l-5.7-9.23v9.23h-2.66Zm15.89-14.15h5.22c1.18,0,2.07.09,2.69.27.83.24,1.55.68,2.14,1.3.59.62,1.04,1.39,1.36,2.29.3.91.46,2.02.46,3.34,0,1.16-.15,2.17-.44,3.01-.35,1.03-.85,1.86-1.5,2.5-.5.48-1.17.86-2.01,1.13-.63.2-1.47.3-2.53.3h-5.37v-14.15h0Zm2.85,2.39v9.37h2.13c.79,0,1.38-.04,1.72-.13.46-.12.85-.31,1.16-.59.31-.28.55-.74.75-1.37.19-.63.29-1.5.29-2.6s-.1-1.93-.29-2.51c-.2-.59-.46-1.04-.81-1.38-.35-.33-.79-.55-1.32-.66-.39-.09-1.18-.14-2.34-.14h-1.29Zm22.32,11.76v-14.15h2.85v14.15h-2.85Zm7.26,0v-14.15h2.78l5.79,9.45v-9.45h2.66v14.15h-2.87l-5.7-9.23v9.23h-2.66Zm19.08,0v-11.76h-4.2v-2.39h11.24v2.39h-4.19v11.76h-2.86Zm10.54,0v-14.15h10.48v2.39h-7.63v3.14h7.1v2.38h-7.1v3.86h7.9v2.39h-10.75Zm14.9,0v-14.03h2.86v11.64h7.11v2.39h-9.96Zm13.73,0v-14.03h2.86v11.64h7.11v2.39h-9.96Zm13.55,0v-14.15h2.86v14.15h-2.86Zm13.81-5.21v-2.38h6.16v5.64c-.6.58-1.46,1.09-2.61,1.53-1.13.44-2.28.66-3.44.66-1.48,0-2.77-.31-3.87-.93-1.11-.63-1.93-1.51-2.48-2.66-.55-1.16-.82-2.41-.82-3.78,0-1.47.31-2.78.92-3.92.62-1.15,1.52-2.03,2.72-2.64.91-.47,2.04-.7,3.38-.7,1.76,0,3.13.37,4.11,1.11.99.74,1.62,1.76,1.91,3.06l-2.83.53c-.21-.7-.57-1.25-1.13-1.65-.55-.4-1.23-.61-2.06-.61-1.24,0-2.23.39-2.98,1.19-.73.79-1.1,1.97-1.1,3.52,0,1.68.37,2.94,1.12,3.78.74.84,1.72,1.26,2.94,1.26.58,0,1.19-.12,1.79-.35.6-.23,1.12-.52,1.55-.86v-1.79h-3.28Zm10.44,5.21v-14.15h10.49v2.39h-7.63v3.14h7.1v2.38h-7.1v3.86h7.9v2.39h-10.77Zm14.86,0v-14.15h2.78l5.79,9.45v-9.45h2.65v14.15h-2.87l-5.7-9.23v9.23h-2.66Zm24.95-5.21l2.77.88c-.43,1.54-1.13,2.69-2.12,3.44-.99.75-2.24,1.13-3.76,1.13-1.88,0-3.42-.64-4.64-1.92-1.2-1.29-1.81-3.04-1.81-5.27,0-2.36.61-4.19,1.82-5.48,1.21-1.31,2.81-1.96,4.79-1.96,1.73,0,3.14.51,4.22,1.53.64.61,1.12,1.48,1.44,2.61l-2.83.67c-.16-.73-.51-1.31-1.05-1.73-.53-.43-1.17-.64-1.93-.64-1.05,0-1.9.38-2.56,1.13-.65.75-.97,1.97-.97,3.66,0,1.79.31,3.06.95,3.82.64.76,1.49,1.13,2.52,1.13.76,0,1.41-.24,1.95-.72.55-.49.94-1.24,1.18-2.28h0Zm6.87,5.21v-14.15h10.49v2.39h-7.63v3.14h7.11v2.38h-7.11v3.86h7.9v2.39h-10.76Zm24.25,0v-14.03h2.86v11.64h7.1v2.39h-9.96Zm26.4,0h-3.11l-1.23-3.22h-5.66l-1.16,3.22h-3.03l5.51-14.15h3.02l5.66,14.15h0Zm-5.26-5.6l-1.95-5.25-1.91,5.25h3.86Zm8.44-8.55h5.66c1.11,0,1.95.05,2.49.14.55.09,1.05.29,1.49.58.43.29.79.69,1.08,1.19.29.49.44,1.04.44,1.65,0,.67-.18,1.28-.54,1.82-.36.56-.83.97-1.44,1.24.86.26,1.52.68,1.99,1.28.46.61.7,1.32.7,2.14,0,.64-.16,1.27-.45,1.88-.3.61-.7,1.1-1.22,1.46-.52.36-1.15.59-1.91.67-.48.05-1.63.08-3.45.1h-4.81v-14.15h0Zm2.86,2.36v3.27h1.86c1.11,0,1.81-.01,2.08-.05.49-.05.87-.22,1.15-.51.29-.28.42-.65.42-1.11s-.12-.79-.36-1.06c-.25-.28-.61-.44-1.08-.5-.28-.03-1.1-.05-2.44-.05h-1.63Zm0,5.62v3.78h2.64c1.03,0,1.68-.02,1.96-.09.42-.08.77-.27,1.03-.56.27-.3.41-.7.41-1.21,0-.42-.11-.78-.31-1.08-.21-.3-.51-.51-.89-.65-.38-.14-1.23-.2-2.53-.2h-2.3Zm12.47-.82c0-1.44.21-2.65.65-3.63.32-.72.76-1.37,1.31-1.95.56-.57,1.17-.99,1.83-1.27.88-.37,1.89-.56,3.05-.56,2.09,0,3.75.65,5.01,1.94,1.25,1.29,1.87,3.08,1.87,5.39s-.62,4.07-1.87,5.36c-1.23,1.29-2.9,1.93-4.97,1.93s-3.79-.64-5.02-1.92c-1.25-1.29-1.86-3.05-1.86-5.3h0Zm2.94-.1c0,1.6.37,2.82,1.11,3.65.73.82,1.68,1.23,2.82,1.23s2.06-.41,2.8-1.23c.73-.82,1.09-2.05,1.09-3.69s-.36-2.83-1.06-3.63c-.71-.79-1.66-1.2-2.83-1.2s-2.13.4-2.86,1.21c-.71.81-1.08,2.02-1.08,3.65h0Zm14.66,7.09v-14.15h6.02c1.51,0,2.61.13,3.3.38.68.26,1.23.71,1.65,1.36.41.65.62,1.39.62,2.23,0,1.06-.32,1.94-.95,2.63-.62.69-1.55,1.13-2.79,1.31.62.36,1.13.76,1.53,1.18.39.44.94,1.2,1.63,2.3l1.72,2.77h-3.41l-2.07-3.08c-.73-1.1-1.23-1.79-1.5-2.08-.27-.28-.56-.48-.86-.59-.31-.1-.78-.15-1.44-.15h-.58v5.91h-2.87Zm2.87-8.17h2.11c1.37,0,2.23-.05,2.57-.17.34-.12.6-.32.8-.6.19-.29.29-.64.29-1.07,0-.48-.12-.86-.38-1.15-.26-.29-.62-.47-1.08-.55-.23-.04-.92-.05-2.08-.05h-2.23v3.59h0Zm25.81,8.17h-3.11l-1.22-3.22h-5.66l-1.17,3.22h-3.03l5.51-14.15h3.01l5.67,14.15h0Zm-5.26-5.6l-1.95-5.25-1.91,5.25h3.86Zm10.14,5.6v-11.76h-4.2v-2.39h11.25v2.39h-4.19v11.76h-2.86Zm9.61-6.99c0-1.44.21-2.65.64-3.63.32-.72.76-1.37,1.32-1.95.56-.57,1.16-.99,1.83-1.27.88-.37,1.89-.56,3.05-.56,2.08,0,3.75.65,5,1.94,1.25,1.29,1.88,3.08,1.88,5.39s-.63,4.07-1.86,5.36c-1.25,1.29-2.9,1.93-4.98,1.93s-3.78-.64-5.02-1.92c-1.23-1.29-1.86-3.05-1.86-5.3h0Zm2.93-.1c0,1.6.37,2.82,1.12,3.65.74.82,1.68,1.23,2.82,1.23s2.07-.41,2.8-1.23c.73-.82,1.09-2.05,1.09-3.69s-.36-2.83-1.07-3.63c-.71-.79-1.66-1.2-2.83-1.2s-2.13.4-2.85,1.21c-.72.81-1.08,2.02-1.08,3.65h0Zm14.68,7.09v-14.15h6.01c1.52,0,2.61.13,3.3.38.69.26,1.24.71,1.65,1.36.41.65.61,1.39.61,2.23,0,1.06-.31,1.94-.93,2.63-.62.69-1.56,1.13-2.8,1.31.62.36,1.13.76,1.53,1.18.41.44.94,1.2,1.63,2.3l1.73,2.77h-3.42l-2.06-3.08c-.73-1.1-1.23-1.79-1.51-2.08-.27-.28-.55-.48-.86-.59-.31-.1-.79-.15-1.45-.15h-.57v5.91h-2.86Zm2.86-8.17h2.11c1.37,0,2.23-.05,2.57-.17.34-.12.61-.32.8-.6.19-.29.29-.64.29-1.07,0-.48-.12-.86-.38-1.15-.25-.29-.61-.47-1.07-.55-.22-.04-.93-.05-2.08-.05h-2.23v3.59h0Zm16.04,8.17v-5.96l-5.19-8.2h3.36l3.33,5.6,3.26-5.6h3.29l-5.21,8.22v5.94h-2.84Z"/>
        <path class="cls-2" d="m244.15,37.96l6.35-22.59h-6.35v-7.27h22.88v7.27h-9.42l-2.75,9.83h12.18v26.92c0,1.12-.2,2.17-.57,3.15-.38.98-.9,1.84-1.54,2.57-.64.73-1.39,1.31-2.24,1.72-.86.42-1.75.62-2.69.62h-9.94v-22.23h-5.89Zm15.96-5.5h-3.14v20.46h1.15c.56,0,1.03-.22,1.41-.66.38-.44.58-.97.58-1.61v-18.19h0Zm28.2-19.22v2.64h11.41v21.13c0,.97-.16,1.88-.48,2.71-.32.83-.75,1.55-1.28,2.16-.54.61-1.18,1.1-1.93,1.46-.75.37-1.53.55-2.34.55h-6.93l-2.63,4.84,16.28,3.52v7.26l-19.68-4.26-2.57,4.84h-8.46l3.39-6.46-3.78-.8v-7.26l7.24,1.54,1.67-3.23h-8.91V15.88h11.47v-2.64h-12.18v-6.09h31.79v6.09h-12.12Zm-11.21,9.17v4.03h3.72v-4.03h-3.72Zm0,14.96h3.72v-4.4h-3.72v4.4h0Zm13.52,0c.38,0,.71-.16.99-.48.27-.32.42-.7.42-1.14v-2.79h-3.72v4.4h2.31Zm-2.31-14.96v4.03h3.72v-4.03h-3.72Z"/>
        <path class="cls-2" d="m325.22,7.22l-4.42,12.33h2.37v40.56h-8.27V27.1h-5.38l7.11-19.88h8.59Zm40.57,36.61h-14.48v16.29h-8.91v-16.29h-16.6v-7.26h16.6v-10.12h-16.15l3.52-14.82h8.46l-1.86,7.56h6.02v-9.98h8.91v9.98h12.69v7.26h-12.69v10.12h14.48v7.26Z"/>
        <path class="cls-2" d="m420.27,47.34h-45.18v-6.82h45.18v6.82h0Zm-42.1-12.76h44.92l.06,17.83c0,.44-.14.82-.42,1.13-.28.32-.63.48-1.05.48h-6.86l-2.18,6.01h12.56c1.58,0,2.93-.64,4.04-1.91,1.1-1.27,1.66-2.81,1.66-4.62l-.07-18.93h.07v-6.75h-46.79l.64-6.9h46.4v-6.82h-45.76l.64-6.82h-8.59l-2.56,27.29h3.27Z"/>
        <path class="cls-2" d="m441.04,60.11v-23.77h54.73v14.46c-.04,1.32-.25,2.54-.61,3.66-.36,1.13-.86,2.11-1.5,2.94-.63.83-1.39,1.49-2.24,1.98-.85.49-1.75.73-2.69.73h-47.68Zm9.1-14.3h36.34v-2.93h-36.34v2.93h0Zm0,7.92h34.29c.6,0,1.09-.27,1.47-.81.38-.54.57-1.2.57-1.98v-.14h-36.34v2.93h0Zm20.96-46.44h25.44v19.15c0,1.12-.18,2.18-.54,3.15-.36.98-.87,1.84-1.51,2.57-.64.73-1.39,1.31-2.25,1.72-.85.41-1.77.62-2.75.62h-18.39V7.29h0Zm16.53,7.27h-7.63v12.69h5.64c.55,0,1.02-.22,1.41-.66.38-.44.58-.97.58-1.61v-10.42h0Zm-47.24,19.95l7.57-7.48h-7.69v-7.26h11.03v-2.64h-11.03l3.01-9.83h8.85l-.77,2.57h16.8v7.26h-7.95v2.64h8.33v7.26h-4.74l5.58,7.48h-8.91l-4.1-5.58-5.64,5.58h-10.32Z"/>
        <path class="cls-2" d="m528.97,55.56c.25,0,.43-.07.51-.22,0-.05.07-.15.19-.29l.13-.37v-3.88h-13.52v2.49l-1.41,7.12h-6.98l1.21-7.12v-28.16h22.81c1.5,0,2.79.62,3.88,1.87,1.09,1.24,1.63,2.72,1.63,4.44v23.03c0,1.18-.13,2.11-.39,2.79-.25.69-.63,1.32-1.15,1.91-.38.49-.81.83-1.28,1.03-.52.14-.99.22-1.41.22h-7.05l1.79-4.84h1.03Zm35.82-30l-2.88,6.53h-15.77c-.86,0-1.62-.17-2.3-.52-.81-.34-1.47-.83-1.99-1.47-.56-.58-.98-1.32-1.28-2.2-.34-.93-.51-1.83-.51-2.71V7.44h8.33v9.98l6.29-9.17h8.32l-10.44,15.03h-4.17c0,.59.17,1.15.52,1.69.47.39.96.59,1.47.59h14.42Zm0,27.36l-2.88,6.46h-15.77c-.9,0-1.66-.17-2.3-.51-.38-.15-.74-.36-1.06-.62-.32-.27-.63-.55-.93-.85-.56-.54-.98-1.27-1.28-2.2-.34-.88-.51-1.78-.51-2.71v-17.6h8.33v9.97l6.29-9.32h8.32l-10.44,15.11h-4.17c0,.69.17,1.22.52,1.61.47.44.96.66,1.47.66h14.42Zm-49.99-45.99h8.27l-3.78,9.17h9.09l-1.41-4.11h7.89l3.52,10.34h-4.68v.08h-24.8l5.89-15.48h0Zm14.99,38.22v-4.04h-13.52v4.04h13.52Zm-13.52-13.57v3.89h13.52v-1.54c0-.63-.2-1.19-.6-1.65-.41-.46-.89-.7-1.44-.7h-11.48Z"/>
        <path class="cls-2" d="m584.92,23.8h-8.85v-13.35h23.2l-1.22-3.23h9.62l1.22,3.23h16.53c.95,0,1.84.21,2.69.62.86.41,1.59.99,2.21,1.72.62.74,1.11,1.59,1.47,2.57.37.97.55,2,.55,3.08v5.36h-8.78v-3.89c0-.63-.2-1.18-.57-1.61-.39-.45-.86-.67-1.42-.67h-36.65v6.16Z"/>
        <polygon class="cls-2" points="590.36 60.18 576.07 60.18 597.92 46.75 576.14 46.75 576.14 39.57 603.5 39.57 603.5 23.44 613.18 23.44 613.18 39.57 623.88 39.57 631.7 39.57 631.7 46.75 612.22 46.75 608.63 48.96 615.36 48.96 632.41 60.18 618.69 60.18 605.04 51.16 590.36 60.18"/>
        <path class="cls-2" d="m662.53,53.65c0,1.96-.55,3.52-1.66,4.7-1.11,1.17-2.5,1.76-4.17,1.76h-10.82l2.43-5.87h5.58c.42,0,.76-.21,1.02-.62.26-.41.39-.82.39-1.21v-15.4h-12.56l1.15-19.44h6.67l-.83,12.84h3.39v-15.11c0-1.27-.53-1.9-1.6-1.9h-9.55v-6.09h12.63c1.92,0,3.38.48,4.35,1.44.99.95,1.48,2.55,1.48,4.8v16.87h2.11v23.25h0Zm-9.36-4.03v-6.16h-11.41v6.16h11.41Zm18.65-18.12l3.14,20.46h-7.12l-3.14-20.46h7.11Zm5,20.46h7.18l-3.14-20.46h-7.12l3.08,20.46h0Zm12.24-20.25h7.12l-3.85,20.25h-7.11l3.85-20.25h0Zm-24.1-7.33v4.62h29.74v-4.62h2.5l-7.24-15.85h-20.89l-7.18,15.85h3.08Zm10.7-9.61h7.88l3.97,8.88h-15.96l4.1-8.88h0Zm21.8,44.89h-33.71v-5.94h33.71v5.94Z"/>
        <path class="cls-2" d="m756.23,10.38c.95,0,1.83.2,2.69.62.86.41,1.61.98,2.24,1.69.64.71,1.15,1.55,1.5,2.53.36.98.55,2.01.55,3.09v3.81h-5.77v4.77h-31.98l-3.14,7.04h24.68l-2.75-5.57h9.29l5.9,11.8h-9.36l-.45-.88h-10.13v4.04h18.71v6.82h-18.71v3.3h23.33v6.82h-56.07v-6.82h23.32v-3.3h-18.71v-6.82h18.71v-4.04h-19.87l5.25-12.39h-4.29v-4.77h-4.29v-11.73h23.26l-1.28-3.23h11.02l1.29,3.23h15.06Zm-40.51,5.5v4.26h38.65v-1.98c0-.63-.19-1.17-.57-1.61-.38-.44-.86-.66-1.42-.66h-36.66Z"/>
        <polygon class="cls-3" points="586.65 23.44 595.29 23.44 602.75 31.29 594.11 31.29 586.65 23.44"/>
        <polygon class="cls-3" points="580.94 29.12 589.58 29.12 597.04 36.98 588.4 36.98 580.94 29.12"/>
      </g>
    </g>
  </g>
</svg>