<?xml version="1.0" encoding="UTF-8"?>
<svg id="Layer_1" data-name="Layer 1" xmlns="http://www.w3.org/2000/svg" viewBox="0 0 304.75 301.41">
  <defs>
    <style>
      .cls-1 {
        fill-rule: evenodd;
      }

      .cls-1, .cls-2 {
        fill: #00561f;
        stroke-width: 0px;
      }
    </style>
  </defs>
  <g id="_纵向" data-name=" 纵向">
    <g>
      <path class="cls-1" d="m223.78,87.97v-6.59c-3.08-1.58-5.45-2.73-6.94-3.08-.71-.18-2.73-.44-3.43-.44-1.67-.26-1.85.44-1.67,1.32.44,1.94,2.55,2.72,3.16,2.64,1.93-.35,2.55.44,3.95.97.88.26,3.08.79,2.46,1.4-.7.71-.79.09-1.5.53-.61.44-2.89-.88-3.69-.18-.43.44.09,1.76-.79,1.94-.52.09-1.32-.7-2.02-1.14-2.02-1.14-4.13-3.16-6.15-4.04-2.2-.88-2.38.17-2.11,1.58.08.79,0,1.14.7,2.63.79,1.58,5.19,2.37,6.77,3.96.97.88,1.85,1.15,1.41,1.58-.79,1.32-1.49,2.38-2.9,2.9-1.32.61-6.59-4.92-6.68-3.34.17,1.23,1.14,2.72,1.32,4.04.35,1.93.35,3.51.44,4.04.35,1.23,2.72,1.76,5.45.88,1.15-.43,2.55-1.14,3.78-1.84,1.67-.97,3.43-4.84,4.4-4.31,2.29,1.23,2.37,1.67,4.05,3.69h0v-5.97c-1.76-.97-3.25-1.85-2.73-2.46.35-.44,1.41-.71,2.73-.71h-.01Zm-10.46-16.08c.71,0,4.92-5.63,5.98-7.56.26-1.14,1.14-2.37,1.67-2.9.88-.7,1.5-.53,1.85.09.44.79.35,2.29-.09,4.39-.26,1.41-.7.79-.97,1.23-1.49,1.85-3.16,3.61-4.13,4.93-.62.69.35,1.58.88,1.31,1.76-2.11,3.69-4.92,5.27-6.94v5.89l-.09.09c-1.06,1.14-1.67.61-2.2,1.93.09.35,1.32.61,2.29.61v4.66c-.53-.35-1.14-.62-1.58-.88-.35-.18-.97-.53-1.67-.62-.53-.08-1.23.27-1.76,0-.79-.44-1.41-.88-1.84-1.14-.53-.35-.88-.43-1.59-.79-.7-.35-2.11-1.14-3.51-1.05-1.32.09-2.9,2.02-3.95,2.46-.97.44-1.85.88-2.64,1.23-.97.44-1.75.79-2.72.35-1.41-.62-1.05-3.16-.26-3.87,1.23-.97,2.28-1.76,3.25-2.81.61-.7.97-1.67,1.49-2.2.53-.52,1.14-.52,1.67-.61.61-.18,1.32-.35,1.76.17.44.44.44,1.06.88,1.5.61.61,1.14.61,2.02.53h0Zm10.46,19.25c.53.35,1.14.7,1.76,1.05.44.26.79.35,1.23.53v5.72c-1.05.17-2.37-.53-2.99-1.32v-5.97h0Zm2.99-2.64v-5.45c-.88-.53-1.67-.96-2.46-1.41l-.53-.26v6.59c.79,0,1.76.09,2.46.44.18,0,.36.09.53.09h0Zm-2.99-22.06c.61-.88,1.23-1.67,1.76-2.2.44-.53.88-1.23,1.23-1.76v6.24c-.17.17-.26.35-.44.53.09.09.18.17.44.26v8c-.44.09-.35,0-.7.26-.09.17.35.62.7.7v2.99l-.17-.09c-.97-.62-1.94-1.23-2.81-1.76v-4.66c.44,0,.88-.09,1.05-.35,1.14-1.14,1.67-1.85.36-2.37-.09.08-.71-.53-1.41.08v-5.89h0v.02Zm6.24,17.23v-4.22c-.17-.18-.35-.53-.35-.62.18-.18.26-.26.35-.26v-5.19c-.35,0-.79-.09-.88-.17.27-.53.35-.53.88-.79h0v-4.13c-.09.17-.26.44-.53.61-.61.62-2.02.79-2.72.62v8l.09-.09c.44-.09.35.35.44.35.26.44.17.53-.44.7h-.09v2.99c1.23.79,2.37,1.58,3.25,2.2Zm-3.25,9.05c.53.18.97.26,1.06.62.52,1.75.61,2.01-.09,4.13-.18.62-.53.88-.97.97v-5.72h0Zm3.25-4.66c-.26-.18-.61-.26-1.06-.35-.7.09-1.23.97-2.2.79v-5.45c1.23.79,2.46,1.58,3.25,2.11v2.9h.01Zm-3.25-25.58c.35-.7.71-1.23,1.14-1.23.79,0,1.67.97,2.11,1.67v3.17c-.09-.09-.26-.18-.44-.18-.27,0-.35.27-.44.35-.88.88-1.67,1.58-2.37,2.47v-6.24h0Zm3.25.44c.09.09.18.18.18.26.26.62.88-.17,1.32,0,.88.26,1.67.97,1.76,1.58.18.7.44,1.49.88,1.85v8.7c-.18-.09-.26-.18-.36-.27-.52-.26-.7.35-.88.71-.09.26.18.7.62.88l.61.61v5.45c-.09.09-.09.27,0,.35v8c-1.23-.88-2.46-2.2-4.13-2.99v-2.9c.26.08.44.27.61.35.53.35,1.23,0,1.06-.52,0-.18-.7-.62-1.67-1.32v-4.22c.18.08.26.18.44.18.27-.09.71,0,.71-.44-.09-.26-.09-.44-.53-.62-.26-.17-.44-.17-.61,0v-5.19c.26,0,.35-.09.44-.17.53-.45.71-.61.17-.88-.09.09-.17-.08-.61.09v-4.13c.61-.88.71-1.67,0-2.2v-3.17h-.01Zm4.13,20.13h.09c2.81,1.32,3.43,2.03,3.87,4.22.35,1.84.96,3.16-.52,4.22-1.32.53-2.38.17-3.43-.44v-8h-.01Zm0-16.43c.27.26.62.35,1.05.26,1.5-.17,2.38-3.25,4.13-2.2.97.79.97,2.46,1.05,3.43,0,1.23-.79,1.84-3.87,2.37-.17.09-.26,0-.79.52-.44.7.79,1.41-.44,2.46-.61.53,1.93,2.55,2.11,2.9.18.44.79.09.7-.61-.08-.18-.18-.88-.44-1.49-.35-1.06-.88-2.2-.61-2.64.26-.62,1.32,0,2.46.79.88.61,2.55.61,3.07,1.41.62.79,1.14,1.14.35,4.3-.18.53-1.14.88-2.02,1.14-1.4.53-2.2,1.32-3.6,1.85-.79.35-2.72,1.05-3.16,1.58v-5.45c.27.17.53.26.79.26.26-.09.62-.53.53-.79-.35-.53-.88-1.06-1.32-1.41v-8.7h0v.02Z"/>
      <path class="cls-1" d="m171.74,41.21c1.94.61,3.26.71,3.34.35.52-1.59,1.23-4.39,1.32-6.68.09-1.14,1.06-1.58,1.76-1.76,1.67-.52,2.2-.79,2.98-.52,1.41.61,2.2,1.84,2.9,3.43.27.79.97-.09-.61,3.34-.7,1.67-.52,1.93-.26,2.28.7.53,1.58.44,2.99.44,1.68-.09,2.73-2.29,4.84,2.11.35.53.44,1.23-.27,1.85-.88.7-2.55.79-4.57,1.32-2.64.61-6.42-.09-6.33,1.67.53,4.4,3.34,11.08,7.91,16.44,1.14,1.4,2.72,2.72,4.57,3.78,2.64,1.5,4.83,2.72,3.26,3.07-2.46.53-10.81-.26-12.75-2.02-2.02-1.93-6.15-14.77-6.76-17.32-.09-.08-.27-.18-.45.09-2.02,2.55-6.24,7.21-9.58,8.7-1.49.61-3.16-.35-3.6-.97-.52-.61-4.39-2.55-4.75-4.05-.09-.88.44-.79.88-.7,5.45,1.14,6.59-.27,8.09-.88,3.95-1.67,5.63-5.98,5.27-6.24-5.1-.88-6.95-.7-8-2.9-1.5-6.95,1.23-7.3,4.04-6.24,1.41.62,3.25,1.32,3.78,1.41h0Z"/>
      <path class="cls-1" d="m111.62,55.28c.7-.09,1.32,0,2.2.7,2.38,1.58,3.08,4.66,4.22,6.24.44,0,1.23-.53,2.2-1.14,1.23-.88,2.64-1.76,2.38-2.12-.97-1.85-6.15-14.06-7.21-15.65-.09-.17-.44-.61-.52-.79-1.93-2.55.35-4.57,1.23-4.83,1.4-.44,5.36.88,5.45,2.28-.17,1.5,1.32,5.01,2.72,8.35,1.32,2.81,2.46,5.63,3.08,6.59.35.88,3.43-1.76,4.4-2.81,1.32-.88-1.06-5.45-.18-6.86.35-.7,4.13-1.67,5.98,1.05.88,1.58,1.32,3.87,1.76,5.98.35,1.5.88,3.34,1.14,3.96.27.7-1.23,4.66-1.84,5.71-1.23.97-3.25-2.19-4.05-3.96-.44-.97-.53-1.32-.88-1.41-.88.26-2.9,1.67-3.87,2.9-.53.62-.35,1.76-1.15,2.38-3.69,1.49-7.12,3.87-7.38,4.65-.18.44-1.32,2.73-1.41,3.26-.09.52-1.58.7-1.93.97-.79.79-2.02-.62-3.69-1.58-1.76-.88-1.32-2.02-1.41-3.87,0-2.02-1.14-5.19-2.19-7.21-.53-1.05-1.14-2.28.97-2.8h-.02Z"/>
      <path class="cls-1" d="m69.25,78.83c.71-.35.79-1.06.97-2.11.79-2.81.87-3.87,1.75-5.72-1.41-1.32-2.99-2.55-4.31-3.87-.26-.26-.61-.44-.88-.53-.88-.26-1.41-1.23-1.41-2.37v-.36c0-.87.26-1.84.88-2.8.35-.53,3.69-1.76,4.66-.8,1.41,1.41,2.9,3.25,4.4,4.3.09-.08.26-.26.44-.35v11.69c-.17-.17-.35-.27-.44-.35-.53,0-.44.7-.44.97-.35,1.32-1.06,2.28-1.93,2.81-.52.17,1.5,1.76,2.81,2.37v9.76c-.26-.09-.53-.17-.88-.26-1.32-.09-2.46-.09-3.52-1.15-.61-1.31-.96-1.94-1.23-2.81-.17-.35-.44-.7-.79-1.14-1.05-1.15-1.84-2.2-2.46-3.7-.27-.88.26-3.34,2.37-3.6v.02Zm6.51-14.59c.7-.62,1.58-1.49,2.46-2.46.79-1.14,1.23-3.16,2.02-4.13.18-.18.36-.27.53-.35v7.38c-1.14.44-2.11,2.2-2.37,2.99.09.52,1.32,2.02,2.37,2.99v20.74c-.53.53-1.23.97-1.93,1.05-.79.09-1.67-.61-3.08-.97v-9.76c.44.26.88.35,1.06.17,1.32-1.06,1.49-1.31,1.85-2.72.17-.53-1.85-2.46-2.9-3.25v-11.69h-.01Zm5.01-6.94c1.58-.97,4.57-.88,5.98-.27,1.32.7,1.5,2.2,1.14,3.25l-.35.8c-.35,1.05.09,3.87.44,4.13.44.53.79.88,1.67.7.7.09,1.93,2.73,1.4,3.96-.17.44-.26.88-.88,1.59-1.49,1.41-2.37,3.69-2.81,5.97,4.57,4.57,8.53,9.05,12.92,13.72,2.11,2.64,3.52,5.62,2.46,6.94-.88.79-3.69-.18-6.77-3.08l-12.74-11.95c-.62.97-1.23,2.55-2.02,4.4v1.58c.09.53.35,1.14.18,1.58-.18.26-.35.53-.62.79v-20.74c.62.61,1.23,1.05,1.4.97,1.06-.79,1.15-2.9.88-3.69-.26-1.14-.79-2.81-2.02-3.34-.09.09-.18.09-.26.09v-7.4Z"/>
      <path class="cls-1" d="m152.52,0C69.28,0,1.81,67.48,1.81,150.71s67.48,150.71,150.71,150.71,150.71-67.48,150.71-150.71S235.75,0,152.52,0h0Zm0,291.48c-77.74,0-140.77-63.02-140.77-140.77S74.78,9.95,152.52,9.95s140.77,63.02,140.77,140.76-63.03,140.77-140.77,140.77Zm0-277.44C77.04,14.04,15.84,75.23,15.84,150.71s61.19,136.68,136.68,136.68,136.68-61.19,136.68-136.68S228.01,14.04,152.52,14.04Zm0,270.48c-73.9,0-133.81-59.91-133.81-133.81S78.62,16.9,152.52,16.9s133.81,59.91,133.81,133.81-59.91,133.81-133.81,133.81Z"/>
      <g>
        <path class="cls-2" d="m61.14,128.65l-7.47-1.94.19-.67c1.95.21,3.67-.14,5.16-1.06s2.44-2.1,2.85-3.54c.32-1.12.27-2.09-.14-2.91-.41-.82-1.01-1.34-1.78-1.57-.49-.14-.96-.15-1.41-.03-.61.17-1.26.54-1.96,1.09-.51.41-1.49,1.41-2.94,3.01-2.03,2.24-3.74,3.65-5.13,4.24-1.4.57-2.83.65-4.29.23-1.86-.53-3.26-1.71-4.18-3.55-.93-1.83-1.07-3.87-.43-6.1.2-.7.46-1.34.78-1.92.32-.58.81-1.29,1.47-2.12.37-.46.6-.86.7-1.2.08-.29.06-.62-.07-1s-.39-.73-.78-1.06l.18-.61,8.41,2.4-.17.61c-2.5-.19-4.57.22-6.21,1.24-1.63,1.02-2.68,2.33-3.13,3.91-.35,1.23-.29,2.3.16,3.22.46.92,1.14,1.5,2.02,1.76.52.15,1.07.16,1.64.02.57-.14,1.16-.43,1.77-.87s1.47-1.29,2.59-2.53c1.57-1.74,2.84-2.96,3.79-3.64.95-.69,1.93-1.14,2.93-1.38,1-.23,2.02-.2,3.06.1,1.78.5,3.1,1.59,3.98,3.25s1.03,3.48.47,5.46c-.21.72-.5,1.4-.86,2.03-.28.48-.7,1.04-1.27,1.67-.57.64-.89,1.1-.98,1.4-.08.28-.06.53.07.75.13.21.51.49,1.13.82l-.14.5h-.01Z"/>
        <path class="cls-2" d="m60.07,129.18l-1.61,11.85-.63-.09.08-.59c.12-.89.11-1.52-.03-1.87-.14-.36-.37-.63-.67-.82-.31-.19-1.12-.37-2.43-.54l-11.24-1.53c-2.05-.28-3.44-.31-4.14-.09-.71.22-1.33.65-1.87,1.3-.54.65-.88,1.52-1.03,2.6-.17,1.24-.04,2.34.4,3.29.44.95,1.12,1.71,2.05,2.28.92.57,2.6,1.02,5.04,1.35l9.36,1.28c1.03.14,1.78.13,2.24-.02.47-.15.81-.38,1.02-.69.33-.47.56-1.17.68-2.1l.62.09-1.08,7.94-.63-.09.06-.47c.09-.64.03-1.2-.17-1.66-.2-.46-.55-.83-1.04-1.09-.34-.2-.98-.36-1.91-.49l-8.72-1.19c-2.7-.37-4.62-.81-5.77-1.33s-2.13-1.54-2.94-3.05c-.82-1.51-1.06-3.46-.74-5.84.27-1.99.75-3.49,1.42-4.5.93-1.38,1.99-2.3,3.2-2.75s2.77-.55,4.68-.29l11.24,1.53c1.32.18,2.15.22,2.49.11.34-.1.64-.32.87-.66.24-.34.42-.99.54-1.96l.63.09h.03Z"/>
        <path class="cls-2" d="m57.36,157.19l-13.77,12.14,9.95-.5c1.39-.07,2.32-.32,2.79-.74.63-.58.9-1.51.82-2.8l.63-.03.39,7.64-.63.03c-.17-.97-.37-1.62-.59-1.94-.22-.33-.55-.57-1.01-.74-.46-.16-1.24-.22-2.33-.16l-19.27.98-.03-.58,18.47-16.63-14.71.75c-1.33.07-2.21.42-2.65,1.05s-.63,1.34-.6,2.13l.03.55-.63.03-.42-8.21.63-.03c.07,1.28.38,2.15.92,2.62s1.42.68,2.65.62l16.33-.83.59-.52c.59-.52.97-.98,1.14-1.36s.25-.93.24-1.64l.63-.03.42,8.21h0Z"/>
        <path class="cls-2" d="m68.19,201.11l-.59.23c-.38-.67-.8-1.13-1.27-1.39-.66-.35-2.2-.71-4.64-1.07l-9.65-1.57-5.21,2.07c-1.11.44-1.78.77-2,1-.22.22-.37.55-.44.97s0,.92.24,1.5l.48,1.21-.59.23-4.8-12.08.59-.23.45,1.13c.25.63.56,1.09.93,1.38.26.22.6.33,1.02.35.3.02.99-.19,2.07-.62l4.32-1.71,7.21-8.73c1.42-1.73,2.21-2.86,2.37-3.41s.11-1.16-.15-1.85l.59-.23,4.1,10.32-.59.24-.18-.46c-.25-.63-.51-1.03-.79-1.2-.28-.18-.52-.23-.72-.15-.38.15-1.17.95-2.37,2.41l-5.59,6.72,8.04,1.3c1.97.33,3.21.39,3.73.19.29-.11.47-.34.55-.69.12-.46.02-1.19-.31-2.17l.59-.23,2.61,6.57v-.03Z"/>
        <path class="cls-2" d="m58.49,215.25l-4.45-6.87-2.42.41c-.81.14-1.41.34-1.82.61-.55.35-.81.84-.78,1.44.02.35.31,1.07.89,2.13l-.53.35-4.19-6.47.53-.34c.56.63,1.22,1.02,1.98,1.16.77.14,2.1.07,4.01-.23l20.03-3.08.17.27-11.41,17.34c-1.08,1.64-1.67,2.81-1.79,3.5-.09.52.04,1.09.37,1.71l-.53.34-6.09-9.41.53-.34.25.39c.49.76.94,1.22,1.35,1.39.29.11.58.08.86-.11.17-.11.33-.26.48-.43.07-.07.34-.45.8-1.13l1.75-2.6v-.03Zm.75-1.17l4.82-7.23-8.63,1.35,3.8,5.88h.01Z"/>
        <path class="cls-2" d="m88.86,225.28l-4.55,4.32-.42-.45c.8-1.26,1.27-2.27,1.42-3.03.15-.76.1-1.54-.16-2.37-.15-.45-.6-1.08-1.34-1.86l-1.19-1.25-12.95,12.31c-.86.82-1.35,1.37-1.47,1.67s-.14.66-.04,1.09c.1.43.38.88.83,1.37l.53.56-.46.44-8.35-8.79.46-.43.53.56c.46.49.92.79,1.38.93.32.1.68.08,1.08-.06.28-.1.84-.55,1.69-1.34l12.95-12.31-1.15-1.21c-1.07-1.13-2.1-1.72-3.06-1.78-1.35-.08-2.73.37-4.15,1.36l-.45-.47,4.55-4.32,14.33,15.08v-.02Z"/>
        <path class="cls-2" d="m87.15,241.32l-6.63-5.14,1.83-2.36,6.62,5.14-1.82,2.35h0Z"/>
        <path class="cls-2" d="m108.1,237.12l-3.85,6.7-.6-.36c.72-1.83.84-3.58.35-5.26s-1.38-2.91-2.67-3.69c-.99-.6-1.94-.82-2.84-.64s-1.56.61-1.98,1.3c-.27.44-.4.89-.4,1.35,0,.63.18,1.36.53,2.18.26.6.97,1.81,2.13,3.63,1.62,2.55,2.53,4.58,2.72,6.08.18,1.49-.12,2.9-.92,4.2-1.01,1.65-2.52,2.69-4.53,3.09-2.01.41-4.02.01-6-1.2-.62-.38-1.17-.8-1.65-1.27-.48-.46-1.03-1.13-1.65-1.99-.35-.48-.67-.81-.98-.99-.25-.15-.58-.22-.98-.19-.4.02-.81.18-1.23.47l-.54-.33,4.55-7.47.54.33c-.85,2.36-1,4.47-.45,6.31.55,1.85,1.53,3.2,2.94,4.06,1.09.67,2.14.9,3.15.7,1.01-.2,1.75-.7,2.23-1.48.29-.47.44-.99.45-1.58.02-.59-.11-1.23-.37-1.94-.27-.7-.85-1.76-1.75-3.17-1.26-1.98-2.1-3.52-2.5-4.62-.41-1.1-.59-2.16-.55-3.19.05-1.02.35-2,.91-2.93.96-1.58,2.35-2.57,4.19-2.97,1.83-.41,3.63-.08,5.39,1,.64.39,1.22.84,1.73,1.37.39.4.81.95,1.28,1.66.47.72.83,1.16,1.09,1.31.25.16.5.2.74.13s.6-.36,1.09-.87l.44.26h0Z"/>
        <path class="cls-2" d="m115.34,242.4l-3.49,8.75.43.17c1.37.54,2.52.51,3.48-.1.96-.62,1.85-1.72,2.68-3.33l.61.24-4.49,11.26-.6-.24c.36-1.28.5-2.39.4-3.33-.1-.95-.36-1.66-.79-2.14-.43-.48-1.16-.93-2.19-1.34l-2.42,6.06c-.47,1.18-.71,1.93-.72,2.23,0,.31.1.6.3.88.21.28.62.54,1.23.78l1.29.51c2.01.8,3.81.98,5.39.53,1.58-.45,3.01-1.52,4.3-3.21l.59.23-3.69,6.45-18.59-7.41.23-.59.72.28c.62.25,1.17.34,1.64.27.33-.04.65-.21.94-.51.22-.2.54-.85.97-1.93l5.64-14.15c.39-.97.6-1.58.64-1.82.04-.41-.04-.78-.25-1.09-.28-.46-.78-.82-1.47-1.1l-.72-.28.23-.59,18.01,7.18-2.54,6.36-.6-.24c.31-1.68.33-2.97.04-3.87-.29-.9-.87-1.71-1.76-2.43-.52-.43-1.59-.97-3.22-1.62l-2.22-.88v.02Z"/>
        <path class="cls-2" d="m133.48,246.88l8.67,16.18,1.78-9.8c.25-1.37.22-2.33-.08-2.88-.42-.75-1.27-1.23-2.54-1.43l.11-.62,7.53,1.37-.11.62c-.98-.05-1.66,0-2.03.13-.37.14-.68.41-.95.82-.26.41-.5,1.15-.69,2.23l-3.45,18.97-.57-.1-11.96-21.77-2.63,14.48c-.24,1.31-.1,2.25.41,2.82.52.57,1.16.92,1.93,1.07l.54.1-.11.62-8.08-1.47.11-.62c1.26.22,2.18.12,2.76-.29.58-.42.98-1.23,1.2-2.44l2.93-16.08-.38-.7c-.37-.69-.72-1.17-1.06-1.43s-.85-.46-1.54-.61l.11-.62,8.08,1.47.02-.02Z"/>
        <path class="cls-2" d="m155.65,249.71l11.83-1.74.1.63-.6.09c-.89.13-1.49.32-1.79.55-.31.23-.51.53-.6.87-.09.35-.05,1.17.15,2.48l1.65,11.22c.3,2.05.66,3.38,1.06,4,.41.62,1,1.1,1.77,1.43.77.34,1.7.42,2.78.26,1.24-.18,2.26-.62,3.04-1.3.79-.69,1.33-1.55,1.62-2.59.29-1.04.25-2.79-.1-5.22l-1.38-9.35c-.15-1.02-.36-1.74-.64-2.15-.28-.41-.59-.67-.94-.8-.55-.18-1.28-.21-2.2-.07l-.09-.62,7.92-1.16.09.63-.47.07c-.64.1-1.16.3-1.55.63-.39.32-.65.76-.76,1.3-.1.38-.07,1.04.06,1.98l1.28,8.7c.4,2.69.51,4.66.33,5.91s-.88,2.47-2.11,3.68-3.03,1.98-5.41,2.33c-1.98.29-3.56.25-4.71-.12-1.58-.5-2.76-1.27-3.53-2.31s-1.3-2.51-1.58-4.41l-1.65-11.23c-.19-1.32-.39-2.12-.58-2.43-.2-.3-.49-.52-.87-.66-.39-.14-1.07-.13-2.04.02l-.09-.62h0Z"/>
        <path class="cls-2" d="m184.86,243.93l15.66,9.59-3.41-9.36c-.48-1.3-.99-2.12-1.53-2.45-.74-.43-1.71-.42-2.91.04l-.22-.59,7.2-2.62.22.59c-.88.45-1.44.83-1.69,1.13s-.38.7-.41,1.18c-.02.49.15,1.25.53,2.27l6.6,18.13-.54.2-21.33-12.76,5.04,13.84c.45,1.25,1.05,1.99,1.78,2.22.73.23,1.47.21,2.21-.06l.52-.19.22.59-7.72,2.81-.22-.6c1.19-.45,1.94-1,2.24-1.65s.23-1.56-.19-2.71l-5.6-15.37-.67-.41c-.67-.41-1.22-.64-1.64-.7-.42-.05-.97.03-1.64.25l-.22-.59,7.73-2.81v.03Z"/>
        <path class="cls-2" d="m220.98,251.8l.31.55-10.53,6-.31-.55.67-.38c.58-.33.99-.71,1.23-1.12.18-.29.24-.64.19-1.05-.02-.3-.32-.96-.9-1.96l-7.54-13.24c-.59-1.03-1.01-1.64-1.26-1.84-.26-.2-.6-.29-1.05-.3-.44,0-.94.15-1.51.47l-.67.38-.31-.55,10.52-6,.31.55-.67.38c-.58.33-1,.7-1.23,1.11-.18.29-.25.64-.2,1.06.03.3.33.95.9,1.96l7.54,13.24c.59,1.03,1.01,1.64,1.27,1.84.26.19.61.29,1.06.29s.94-.15,1.51-.48l.67-.38v.02Z"/>
        <path class="cls-2" d="m227.93,217.79l.4.48c-.56.65-.85,1.47-.87,2.48,0,.75.3,2.23.92,4.45l5.17,18.71-.44.36-17.87-9.1c-2.15-1.09-3.48-1.69-3.98-1.78s-1.13.11-1.88.61l-.41-.49,8.54-7.09.41.49-.29.24c-.77.64-1.22,1.17-1.33,1.6-.09.3-.03.58.18.83.13.16.32.31.57.47s.96.54,2.14,1.14l11.16,5.72-3.04-10.82c-.37-1.31-.64-2.16-.82-2.56-.17-.4-.35-.72-.54-.95-.22-.26-.48-.43-.79-.52-.31-.08-.64-.07-1,.05-.51.17-1.06.5-1.69,1.02l-.4-.49,5.85-4.85h.01Z"/>
        <path class="cls-2" d="m232.48,213.21l7.57,5.61.28-.37c.87-1.18,1.14-2.31.79-3.39-.35-1.08-1.19-2.23-2.53-3.45l.39-.52,9.74,7.22-.39.52c-1.14-.68-2.18-1.09-3.12-1.24-.94-.15-1.69-.08-2.27.22-.58.29-1.2.88-1.86,1.77l5.24,3.89c1.02.76,1.68,1.18,1.98,1.26.29.08.6.06.92-.07s.68-.46,1.08-.99l.82-1.11c1.29-1.74,1.92-3.43,1.89-5.07-.03-1.64-.7-3.3-2-4.98l.38-.51,5.29,5.22-11.92,16.08-.51-.38.46-.62c.4-.54.63-1.05.68-1.52.05-.33-.04-.68-.25-1.04-.15-.26-.68-.74-1.62-1.43l-12.24-9.07c-.84-.62-1.37-.98-1.6-1.08-.39-.15-.76-.16-1.12-.04-.51.16-.99.54-1.44,1.14l-.46.62-.51-.37,11.54-15.57,5.5,4.08-.39.52c-1.54-.73-2.78-1.07-3.73-1.03-.94.05-1.87.41-2.8,1.08-.54.39-1.34,1.29-2.38,2.7l-1.42,1.92h.01Z"/>
        <path class="cls-2" d="m253.27,200.33l6.03,2.4c1.17.46,1.93.68,2.28.66.36-.02.7-.18,1.02-.47s.68-.92,1.07-1.91l.59.23-4.38,11.02-.59-.23c.4-1,.57-1.71.52-2.14-.04-.43-.18-.77-.42-1.03s-.94-.62-2.1-1.08l-13.97-5.55c-1.16-.46-1.93-.68-2.28-.66-.36.02-.7.18-1.02.47s-.68.92-1.07,1.91l-.58-.24,3.97-10c1.04-2.6,1.97-4.44,2.81-5.5s1.9-1.78,3.17-2.16c1.27-.38,2.56-.31,3.86.21,1.59.63,2.67,1.72,3.25,3.28.37.99.45,2.21.26,3.65l9.34-2.28c1.21-.3,1.99-.55,2.34-.75.5-.3.88-.73,1.14-1.29l.59.24-2.7,6.78-12.57,3.04-.56,1.41h0Zm-10.55-4.2l9.43,3.75.36-.9c.58-1.47.89-2.63.91-3.46.02-.84-.24-1.6-.77-2.3-.54-.7-1.37-1.27-2.51-1.72-1.64-.65-3.01-.75-4.09-.29-1.09.45-1.97,1.53-2.65,3.24l-.67,1.7v-.02Z"/>
        <path class="cls-2" d="m248.16,168.52l7.65,1.08-.11.69c-1.96,0-3.63.55-5.01,1.63s-2.19,2.36-2.43,3.85c-.19,1.14-.04,2.1.46,2.87s1.15,1.22,1.95,1.35c.51.09.97.04,1.41-.13.58-.24,1.19-.67,1.83-1.31.46-.47,1.32-1.58,2.58-3.33,1.76-2.45,3.3-4.05,4.62-4.79,1.32-.73,2.74-.97,4.24-.72,1.91.32,3.43,1.34,4.56,3.05,1.13,1.72,1.5,3.72,1.12,6.01-.12.72-.31,1.39-.56,2-.25.62-.66,1.37-1.23,2.27-.32.5-.5.93-.56,1.27-.05.29.01.62.18.98s.47.68.89.96l-.1.62-8.63-1.44.1-.62c2.51-.09,4.52-.73,6.03-1.93s2.4-2.61,2.67-4.24c.21-1.26.03-2.32-.53-3.18-.56-.86-1.3-1.37-2.21-1.52-.54-.09-1.09-.03-1.64.17s-1.1.56-1.65,1.07c-.55.51-1.32,1.44-2.3,2.8-1.37,1.91-2.49,3.26-3.36,4.05s-1.79,1.35-2.76,1.7c-.97.34-1.99.42-3.05.25-1.82-.3-3.26-1.23-4.32-2.78-1.06-1.55-1.42-3.34-1.08-5.37.12-.74.34-1.45.63-2.11.22-.51.58-1.11,1.07-1.81s.76-1.19.81-1.5c.05-.29,0-.54-.15-.74s-.56-.43-1.22-.69l.08-.51.02.05Z"/>
        <path class="cls-2" d="m272.7,155.02h.63l-.17,12.12h-.63v-.78c.01-.67-.1-1.22-.33-1.63-.16-.3-.42-.53-.81-.7-.27-.13-.99-.2-2.15-.22l-15.24-.22c-1.19-.02-1.92.04-2.22.16s-.56.37-.79.75-.35.89-.36,1.54v.77h-.65s.17-12.12.17-12.12h.63v.78c-.01.67.09,1.22.33,1.63.15.3.42.53.81.71.27.13.99.2,2.15.22l15.24.22c1.18.02,1.93-.04,2.22-.16.3-.13.56-.38.79-.76s.35-.89.35-1.54v-.77h.03Z"/>
        <path class="cls-2" d="m248.94,133.41l6.22-.81.08.61c-1.39.55-2.36,1.08-2.94,1.6-.57.52-.99,1.19-1.26,2.01-.15.46-.15,1.22,0,2.29l.22,1.71,17.72-2.31c1.17-.15,1.9-.32,2.18-.48.28-.17.5-.46.67-.86.17-.41.22-.94.13-1.59l-.1-.76.63-.08,1.57,12.03-.63.08-.1-.76c-.09-.67-.27-1.19-.56-1.56-.2-.27-.5-.47-.91-.59-.29-.09-1.01-.06-2.16.09l-17.72,2.31.21,1.66c.2,1.55.68,2.63,1.42,3.24,1.04.86,2.43,1.32,4.15,1.35l.08.65-6.21.81-2.69-20.63h0Z"/>
        <path class="cls-2" d="m241.98,109.16l.61-.18c.31.71.69,1.21,1.13,1.5.62.41,2.12.91,4.51,1.49l9.46,2.47,5.38-1.57c1.15-.33,1.84-.6,2.09-.8s.42-.51.53-.93c.11-.42.08-.92-.09-1.51l-.37-1.25.61-.18,3.65,12.48-.61.18-.34-1.16c-.19-.66-.46-1.14-.8-1.46-.24-.24-.56-.39-.98-.44-.3-.04-1.01.1-2.12.42l-4.46,1.3-8,8.02c-1.58,1.59-2.47,2.64-2.68,3.17-.21.52-.21,1.14-.02,1.86l-.61.18-3.12-10.66.61-.18.14.47c.19.65.41,1.07.67,1.27s.5.27.7.21c.39-.12,1.26-.84,2.59-2.18l6.18-6.17-7.87-2.04c-1.93-.51-3.16-.69-3.7-.54-.29.09-.5.3-.61.64-.17.45-.13,1.18.11,2.19l-.61.18-1.99-6.79h0Z"/>
      </g>
      <path class="cls-2" d="m152.52,147.59c-.57,0-1.03.46-1.03,1.03v8.27c0,.57.46,1.03,1.03,1.03s1.04-.46,1.04-1.03v-8.27c0-.57-.47-1.03-1.04-1.03Zm33.52-36.76c-4.34-14.41-17.7-24.9-33.52-24.9s-29.18,10.49-33.52,24.9c-23.74,1.36-42.57,21.03-42.57,45.11s18.83,43.75,42.57,45.11c4.34,14.41,17.7,24.9,33.52,24.9s29.18-10.49,33.52-24.9c23.74-1.36,42.57-21.03,42.57-45.11s-18.83-43.75-42.57-45.11Zm36.24,47.56c-.03.48-.06.96-.11,1.43-.02.22-.05.44-.08.66-.05.41-.1.82-.16,1.23-.04.25-.08.49-.12.73-.06.38-.13.76-.2,1.14-.05.25-.11.5-.16.75-.08.36-.16.72-.25,1.08-.07.26-.13.51-.21.76-.09.35-.19.7-.29,1.04-.08.26-.16.51-.24.76-.11.34-.22.67-.34,1-.09.25-.18.5-.28.76-.12.32-.25.65-.39.97-.1.25-.2.5-.31.74-.14.32-.28.63-.43.95-.11.24-.23.49-.35.73-.15.31-.31.62-.47.92-.12.24-.25.47-.38.71-.16.3-.34.6-.52.9-.14.23-.27.45-.4.68-.18.3-.38.59-.57.88-.14.22-.28.43-.43.65-.2.29-.41.58-.62.87-.15.2-.29.41-.44.61-.23.3-.46.59-.7.88-.14.18-.28.36-.43.54-.28.34-.57.67-.87,1-.11.12-.21.25-.32.37-.4.44-.82.88-1.24,1.3-.16.16-.33.32-.5.47-.27.26-.53.52-.81.77-.2.18-.41.36-.61.54-.25.22-.5.44-.76.65-.22.19-.45.36-.67.54-.25.2-.49.4-.75.59-.23.18-.48.35-.72.52l-.75.54c-.25.17-.5.34-.75.5-.25.17-.51.33-.77.49s-.53.32-.79.47c-.26.15-.51.3-.78.45s-.55.3-.82.44c-.26.14-.53.27-.8.41-.28.14-.57.28-.85.41-.26.12-.53.24-.81.36-.29.13-.58.25-.88.37-.27.11-.55.22-.82.32-.3.11-.6.23-.9.34-.27.1-.55.19-.83.28-.31.1-.62.21-.93.3-.28.08-.56.16-.84.24-.32.09-.64.18-.96.26-.28.07-.56.13-.84.19-.33.07-.66.15-.99.22-.27.05-.56.1-.83.15-.34.06-.69.13-1.03.18-.26.04-.53.07-.79.1-1.64.21-3.31.33-5.01.33-.81,0-1.61-.03-2.4-.08-.29,2.13-.8,4.19-1.53,6.15h0c-.13.35-.27.7-.42,1.05-.08.19-.16.37-.24.56-.09.2-.17.4-.27.59-.09.19-.18.38-.27.57-.1.19-.19.38-.29.57-.1.18-.19.36-.29.54-.12.22-.25.44-.38.66-.15.25-.31.51-.46.76-.13.2-.26.41-.39.61-.11.16-.22.33-.34.5-.12.18-.25.35-.38.53-.12.16-.23.33-.36.48-.14.18-.28.37-.43.55-.11.14-.22.28-.34.42-.25.29-.49.58-.75.86l-.36.39c-.16.17-.33.35-.5.52l-.4.4c-.17.16-.34.33-.52.49l-.39.36c-.24.22-.49.43-.74.64-.13.11-.26.21-.39.32-.24.2-.49.39-.74.58-.13.1-.27.2-.4.29-.21.15-.42.3-.63.45-.14.09-.27.18-.41.28-.24.16-.48.31-.73.46-.11.07-.22.14-.33.21-.35.21-.7.41-1.06.61-.11.06-.23.12-.34.18-.26.14-.53.28-.79.41-.14.07-.27.13-.41.2-.26.12-.52.24-.78.35-.13.06-.26.12-.39.17-.38.16-.77.31-1.16.46-.03.01-.05.02-.08.03-.38.14-.76.26-1.14.38-.13.04-.26.08-.39.12-.29.09-.58.17-.87.25-.14.04-.28.08-.42.11-.32.08-.65.16-.98.22-.1.03-.2.05-.3.07-.42.08-.85.16-1.28.23-.1.02-.21.03-.31.04-.33.05-.67.09-1,.13-.15.02-.29.03-.43.04-.32.03-.63.05-.95.07-.13,0-.27.02-.4.02-.45.02-.89.04-1.35.04h0c-.45,0-.9-.01-1.34-.04-.14,0-.27-.01-.41-.02-.32-.02-.63-.05-.94-.07-.15-.01-.3-.03-.45-.04-.33-.04-.66-.08-.98-.12-.11-.02-.22-.03-.33-.05-.43-.07-.85-.14-1.27-.22-.11-.03-.22-.05-.33-.08-.31-.07-.63-.14-.94-.22-.15-.04-.3-.08-.44-.12-.28-.08-.56-.15-.84-.24-.14-.04-.28-.08-.42-.12-.36-.11-.71-.23-1.06-.36-.08-.03-.16-.05-.24-.08-.36-.13-.71-.27-1.06-.42-.14-.06-.29-.12-.43-.19-.25-.11-.49-.22-.73-.33-.15-.07-.3-.15-.46-.22-.25-.12-.49-.24-.73-.37-.13-.07-.27-.14-.4-.21-.35-.19-.69-.38-1.02-.59-.14-.08-.27-.17-.4-.25-.22-.14-.44-.27-.65-.42-.16-.1-.31-.21-.46-.31-.19-.13-.38-.27-.57-.41-.15-.11-.3-.22-.46-.33-.21-.16-.41-.32-.61-.48-.21-.17-.42-.34-.63-.52-.2-.17-.39-.34-.58-.51-.15-.14-.3-.28-.45-.42-.15-.14-.3-.28-.45-.42-.15-.15-.3-.3-.45-.45-.14-.15-.28-.29-.41-.44-.15-.15-.29-.3-.43-.46-.22-.24-.44-.49-.64-.75-.17-.2-.33-.4-.49-.6-.12-.15-.23-.29-.34-.44-.14-.18-.27-.36-.41-.55-.1-.15-.21-.29-.31-.44-.13-.19-.27-.38-.39-.57-.1-.14-.19-.29-.28-.43-.23-.37-.46-.74-.68-1.12-.08-.14-.16-.28-.24-.42-.12-.21-.23-.42-.34-.64-.08-.15-.15-.3-.23-.46-.11-.21-.21-.43-.31-.65-.07-.15-.14-.31-.21-.46-.1-.23-.2-.45-.3-.67-.03-.07-.05-.14-.08-.2-.89-2.2-1.52-4.53-1.85-6.96-.8.05-1.59.08-2.4.08-1.72,0-3.41-.12-5.07-.34-.24-.03-.48-.06-.72-.09-.36-.05-.72-.12-1.08-.18-.26-.05-.52-.09-.78-.14-.35-.07-.69-.15-1.03-.23-.26-.06-.53-.12-.79-.18-.34-.08-.67-.18-1.01-.27-.26-.07-.53-.15-.79-.22-.33-.1-.65-.21-.98-.31-.26-.08-.52-.17-.78-.26-.32-.12-.64-.24-.95-.36-.26-.1-.52-.2-.77-.3-.31-.13-.61-.26-.92-.4-.25-.11-.51-.22-.76-.34-.3-.14-.6-.28-.9-.43-.25-.12-.5-.25-.74-.38-.29-.15-.58-.31-.87-.47-.24-.14-.48-.28-.72-.41-.29-.17-.57-.34-.85-.51-.24-.14-.47-.29-.7-.45-.27-.18-.55-.36-.82-.54-.23-.16-.45-.32-.67-.48-.27-.19-.54-.38-.8-.58-.22-.17-.43-.34-.65-.51-.26-.21-.52-.41-.76-.62-.21-.17-.42-.36-.63-.54-.24-.22-.5-.42-.74-.65-.2-.18-.39-.37-.59-.56-.24-.23-.48-.45-.71-.68-.16-.16-.32-.33-.47-.5-.46-.48-.91-.97-1.35-1.48-.19-.22-.39-.43-.57-.66l-.57-.72c-.18-.24-.37-.47-.55-.71-.18-.24-.36-.49-.53-.74-.18-.25-.36-.49-.52-.74-.17-.25-.34-.5-.5-.76-.17-.26-.33-.51-.49-.77s-.31-.52-.46-.78c-.15-.27-.31-.53-.46-.8-.15-.26-.29-.53-.43-.8-.14-.27-.28-.55-.42-.82-.13-.27-.26-.54-.39-.82s-.26-.57-.39-.85c-.12-.27-.24-.55-.35-.83-.12-.29-.24-.58-.35-.88-.11-.28-.21-.56-.31-.85-.11-.3-.21-.6-.31-.9-.09-.29-.19-.57-.27-.86-.09-.31-.18-.62-.26-.93-.08-.29-.16-.58-.23-.87-.08-.32-.15-.63-.22-.96-.07-.29-.13-.58-.19-.88-.06-.32-.12-.66-.18-.99-.05-.29-.1-.58-.15-.87-.05-.35-.09-.69-.13-1.04-.03-.29-.07-.57-.1-.86-.04-.37-.06-.75-.09-1.12-.02-.26-.04-.53-.06-.79-.02-.5-.03-1.01-.04-1.51,0-.14-.01-.28-.01-.42s.01-.28.01-.42c0-.51.01-1.01.04-1.52.01-.27.04-.53.06-.79.03-.38.05-.75.09-1.12.03-.29.07-.57.1-.85.04-.35.08-.7.13-1.04.04-.29.1-.58.15-.87.06-.33.11-.66.18-.99.06-.29.12-.58.19-.88.07-.32.14-.64.22-.95.07-.29.15-.58.23-.87.08-.31.17-.62.26-.93.09-.29.18-.58.27-.86.1-.3.2-.6.31-.9.1-.28.2-.57.31-.85.11-.29.23-.58.35-.87.11-.28.23-.56.35-.83.13-.29.25-.57.39-.85.13-.27.26-.55.39-.82.14-.27.28-.55.42-.82s.28-.54.43-.8c.15-.27.31-.53.46-.8.15-.26.3-.52.46-.78s.33-.51.49-.77c.16-.25.33-.51.5-.76s.35-.5.52-.74c.18-.25.35-.5.53-.74s.37-.47.55-.71l.57-.72c.19-.22.38-.44.57-.66.44-.5.89-1,1.35-1.48.16-.16.31-.33.47-.5.23-.23.47-.46.71-.69.2-.19.39-.38.59-.56.24-.22.49-.43.74-.65.21-.18.42-.37.63-.54.25-.21.51-.41.76-.61.22-.17.43-.34.65-.51.26-.2.53-.39.8-.58.22-.16.44-.32.67-.48.27-.19.54-.37.82-.55.23-.15.46-.3.7-.45.28-.17.56-.34.85-.51.24-.14.48-.28.72-.41.29-.16.58-.32.87-.47.25-.13.49-.26.74-.38.3-.15.6-.29.9-.43.25-.12.5-.23.76-.34.31-.14.61-.27.92-.4.26-.1.51-.2.77-.3.31-.12.63-.24.95-.35.26-.09.52-.18.78-.27.33-.11.65-.21.98-.31.26-.08.53-.15.79-.23.33-.09.67-.19,1.01-.27.26-.07.53-.12.79-.18.35-.08.69-.16,1.03-.23.26-.05.52-.09.78-.14.36-.07.72-.13,1.08-.19.24-.04.48-.06.72-.09,1.66-.22,3.35-.34,5.07-.34.81,0,1.61.03,2.41.08.32-2.36.91-4.62,1.77-6.76.05-.14.1-.28.16-.41.09-.22.19-.44.29-.65.07-.16.14-.33.22-.49.1-.21.2-.42.31-.63.08-.16.16-.32.25-.48.11-.21.21-.41.32-.61.09-.16.19-.32.28-.48.2-.35.41-.69.62-1.02.1-.16.2-.32.31-.48.12-.18.25-.37.38-.56.11-.15.22-.31.33-.46.13-.18.26-.36.4-.53.12-.16.25-.31.37-.47.13-.16.26-.33.39-.49.24-.28.48-.56.72-.84.14-.15.27-.29.41-.44.15-.16.29-.31.44-.46.14-.15.29-.29.43-.43.16-.15.31-.3.47-.45.14-.13.28-.27.43-.4.21-.19.42-.37.64-.55.18-.15.36-.3.55-.45.22-.17.43-.35.65-.52.15-.11.29-.21.44-.32.19-.14.39-.28.59-.42.15-.1.3-.2.45-.3.22-.15.45-.29.67-.43.13-.08.25-.16.38-.24.34-.21.69-.41,1.04-.6.12-.07.25-.13.38-.2.25-.13.5-.26.74-.38.15-.08.3-.14.45-.21.25-.12.5-.23.75-.34.14-.06.28-.12.42-.18.36-.15.72-.29,1.08-.43.06-.03.13-.05.2-.07.35-.13.72-.25,1.08-.37.14-.04.28-.08.41-.12.28-.08.56-.17.84-.24.15-.04.29-.08.44-.11.31-.08.63-.15.94-.22.11-.02.21-.05.32-.07.42-.09.85-.16,1.27-.23.11-.02.22-.03.33-.05.33-.04.66-.09.99-.12.15-.02.29-.03.44-.05.31-.03.62-.05.94-.07.14,0,.27-.02.41-.02.44-.02.89-.03,1.34-.03h0c.45,0,.9.01,1.35.03.13,0,.27.02.4.02.32.02.64.04.95.07.14.02.29.03.43.04.34.04.68.08,1.01.13.1.02.2.03.3.04.43.07.86.14,1.28.23.1.02.2.04.3.06.33.07.65.15.98.23.14.04.28.07.42.11.3.08.59.16.88.25.12.04.26.08.38.12.39.12.78.25,1.16.39.02,0,.04.01.06.02.4.15.79.3,1.18.46.12.05.25.11.38.16.27.12.53.24.8.36.13.06.27.13.41.2.27.13.54.27.81.41.11.05.22.11.32.17.36.2.71.4,1.06.61.1.06.21.13.31.2.25.16.5.31.75.48.13.09.26.18.4.27.22.15.44.3.65.46.13.1.25.19.38.28.26.2.52.4.78.61.1.08.2.17.31.25.27.22.53.45.8.69.12.11.24.23.37.34.18.17.36.35.54.52.13.12.25.25.38.38.18.18.35.36.52.55.11.12.23.24.34.36.26.29.51.58.76.88.11.13.21.26.31.39.16.19.31.39.46.58.12.15.23.3.34.46.14.18.26.37.4.56.11.16.22.31.32.47.14.21.28.43.42.65.14.22.27.44.4.66.14.24.29.48.42.72.1.17.18.35.27.52.1.2.21.39.3.59.09.18.18.36.27.55.1.2.19.41.28.61.08.18.16.35.23.53.15.35.29.7.42,1.06h0c.73,1.96,1.24,4.01,1.53,6.15.79-.05,1.59-.08,2.4-.08,1.7,0,3.37.12,5.01.33.26.03.53.06.79.1.34.05.69.12,1.03.18.27.05.56.09.83.15.33.07.66.15.99.22.28.06.56.12.84.19.32.08.64.17.96.26.28.08.56.15.84.24.31.09.62.2.93.3.27.09.55.18.83.28.3.11.61.22.9.34.27.11.55.21.82.32.3.12.59.25.88.37.27.12.54.24.81.36.29.13.57.27.85.41.27.13.53.27.8.41.27.14.55.29.82.44.26.15.52.3.78.45.26.16.53.31.79.47.26.16.51.33.77.49.25.17.51.33.75.5.25.17.5.35.75.54.24.17.48.35.72.52.25.19.5.39.75.59.22.18.45.35.67.54.26.21.51.44.76.66.2.18.41.35.61.54.27.25.54.51.81.77.17.16.34.31.5.48.42.42.84.86,1.24,1.3.11.12.21.25.32.37.29.33.59.66.87,1,.15.18.29.36.43.54.23.29.47.58.7.88.15.2.29.4.44.61.21.29.42.58.62.87.15.21.29.43.43.65.19.29.39.58.57.88.14.23.27.45.4.68.17.3.35.6.52.9.13.23.25.47.38.71.16.3.32.61.47.92.12.24.23.48.35.73.15.31.29.63.43.94.11.25.21.5.31.74.14.32.26.65.39.97.09.25.19.5.28.75.12.33.23.67.34,1,.09.25.16.51.24.76.1.34.2.69.29,1.04.07.25.14.5.21.76.09.36.17.72.25,1.08.06.25.11.5.16.75.08.38.14.76.2,1.14.04.24.09.48.12.73.06.41.11.82.16,1.23.03.22.06.44.08.66.05.47.08.95.11,1.43.01.16.03.33.04.49.03.65.05,1.3.05,1.96s-.02,1.31-.05,1.96c0,.16-.02.33-.04.49l-.03.02Zm-69.76-21.3c1.26,0,2.27-1.02,2.27-2.27s-1.02-2.27-2.27-2.27-2.27,1.02-2.27,2.27,1.01,2.27,2.27,2.27Zm9.26-7.91h-5.52v12.57h-1.88c-.53-.4-1.19-.65-1.9-.65s-1.38.25-1.91.65h-1.8v-12.57h-5.51v38.36h-2.26v5.62h23.04v-5.62h-2.26v-38.36h0Zm-5.52,38.36h-7.49v-3.59h7.49v3.59Zm0-6.05h-7.49v-17.43h2.11c.09-.8.77-1.43,1.6-1.43s1.5.63,1.59,1.43h2.19v17.43Zm5.46-40.36h-4.58v-3.64h-1.27v-2.31h1.21v-2.1h-1.21v-.33c0-1.69-1.24-3.08-2.87-3.32v-5.83h-.99v5.83c-1.62.24-2.87,1.63-2.87,3.32v.33h-1.21v2.1h1.21v2.31h-1.27v3.64h-4.58v3.42h-2.26v2.2h22.93v-2.2h-2.26v-3.42h.02Zm-10.25,0h-1.3v-3.64h1.3v3.64Zm3.39,0h-1.3v-3.64h1.3v3.64Zm28.55-.85h-5.12c-.35-13.95-11.75-25.15-25.78-25.15s-25.43,11.2-25.78,25.15h-5.12c-19.7,0-35.66,15.97-35.66,35.66s15.97,35.66,35.66,35.66h5.12c.35,13.95,11.75,25.14,25.78,25.14s25.43-11.2,25.78-25.14h5.12c19.69,0,35.66-15.97,35.66-35.66s-15.97-35.66-35.66-35.66Zm-61.54,47.16c-2.07-1.8-4.63-3.06-7.45-3.54h14.35c-2.84,0-5.35,1.4-6.9,3.54Zm1.72,1.75c1.09-1.73,3-2.88,5.19-2.88,3.39,0,6.14,2.75,6.14,6.14h0v6.96h-7.75v-.33c0-3.76-1.35-7.21-3.59-9.88h0Zm11.33,12.62v14.74h-3.3v-9.5h0c0-2-.73-3.83-1.93-5.23h5.23,0Zm17.58,32.64c-10.16,0-18.81-6.46-22.09-15.49h44.18c-3.27,9.03-11.92,15.49-22.09,15.49Zm-6.15-17.9v-12.14c.52-3.09,3.15-5.45,6.3-5.45,2.9,0,5.35,2.01,6.11,4.75v12.83h-12.42.01Zm27.02-9.5h0v9.5h-3.4v-14.74h5.33c-1.2,1.41-1.93,3.24-1.93,5.23h0Zm4.44-7.97v.33h-7.84v-6.96h0c0-3.39,2.75-6.14,6.14-6.14,2.22,0,4.16,1.18,5.24,2.95-2.21,2.67-3.54,6.09-3.54,9.82Zm5.26-11.58c-1.55-2.17-4.08-3.59-6.94-3.59h14.44c-2.85.49-5.42,1.77-7.51,3.59h.01Zm27.53-23.87c-8.27,0-15.22,5.63-17.24,13.26h-30.78v2.41h30.32c-.08.71-.14,1.43-.14,2.17v.04h-30.19v2.41h13.51c-4.71,0-8.53,3.83-8.53,8.55h0v24.1h-3.33v-20.82h2.05v-1.62h-7.52v5.73c-1.05-1.19-2.41-2.07-3.95-2.51v-1.83h.87v-1.42h-6.4v1.42h.87v1.92c-1.49.49-2.81,1.41-3.8,2.6v-5.89h-7.64v1.59h2.08v20.82h-3.46v-24.1h0c0-4.72-3.82-8.54-8.53-8.55h13.61v-2.41h-30.18v-.04c0-.74-.05-1.46-.13-2.17h30.32v-2.41h-30.78c-2.02-7.63-8.97-13.26-17.24-13.26-1.22,0-2.42.12-3.58.36,4.79-12.32,16.76-21.06,30.78-21.07h7.41v-1.98h0c0-12.98,10.52-23.5,23.5-23.5s23.5,10.52,23.5,23.5v1.98h7.41c14.02,0,25.98,8.75,30.78,21.07-1.16-.24-2.36-.36-3.59-.36h0Zm-60.18,58.57h-4.23l-1,3.06h3.4l-.14,1.21h-3.7l-.46,1.41h5.69l.43-5.69h.01Zm-1.63,2.02h-1.92l.26-1.02,1.85-.03-.19,1.04h0Zm13.85,2.16l.71,1.51,2.11-.1-.82-1.31.97-.05-.82-1.41h-1.17l-1.43-2.82h-1.46l-1.49,2.67.53,1.51h2.87Zm-1.22-2.67l.58,1.26h-1.22l.63-1.26h0Zm-17.52-1.51h-1.65l-2.58,5.69h2.29l1.94-5.69h0Zm8.31,5.69h5.78l-.37-1.46h-2.28l1.8-1.6-.6-2.62h-4.28l-.03,2.19h1.65l-.14-.87h1.55l.1.97-3.11,1.9-.07,1.51v-.02Z"/>
    </g>
  </g>
</svg>